<svg width="25" height="25" viewBox="0 0 25 25" fill="none" xmlns="http://www.w3.org/2000/svg">
<path fill-rule="evenodd" clip-rule="evenodd" d="M1.5625 12.5C1.5625 15.4008 2.71484 18.1828 4.76602 20.234C6.8172 22.2852 9.59919 23.4375 12.5 23.4375C15.4008 23.4375 18.1828 22.2852 20.234 20.234C22.2852 18.1828 23.4375 15.4008 23.4375 12.5C23.4375 9.59919 22.2852 6.8172 20.234 4.76602C18.1828 2.71484 15.4008 1.5625 12.5 1.5625C9.59919 1.5625 6.8172 2.71484 4.76602 4.76602C2.71484 6.8172 1.5625 9.59919 1.5625 12.5ZM25 12.5C25 15.8152 23.683 18.9946 21.3388 21.3388C18.9946 23.683 15.8152 25 12.5 25C9.18479 25 6.00537 23.683 3.66117 21.3388C1.31696 18.9946 0 15.8152 0 12.5C0 9.18479 1.31696 6.00537 3.66117 3.66117C6.00537 1.31696 9.18479 0 12.5 0C15.8152 0 18.9946 1.31696 21.3388 3.66117C23.683 6.00537 25 9.18479 25 12.5ZM7.03125 11.7188C6.82405 11.7188 6.62534 11.8011 6.47882 11.9476C6.33231 12.0941 6.25 12.2928 6.25 12.5C6.25 12.7072 6.33231 12.9059 6.47882 13.0524C6.62534 13.1989 6.82405 13.2812 7.03125 13.2812H16.0828L12.7281 16.6344C12.6555 16.707 12.5979 16.7932 12.5586 16.8882C12.5192 16.9831 12.499 17.0848 12.499 17.1875C12.499 17.2902 12.5192 17.3919 12.5586 17.4868C12.5979 17.5818 12.6555 17.668 12.7281 17.7406C12.8008 17.8133 12.887 17.8709 12.9819 17.9102C13.0768 17.9495 13.1785 17.9697 13.2812 17.9697C13.384 17.9697 13.4857 17.9495 13.5806 17.9102C13.6755 17.8709 13.7617 17.8133 13.8344 17.7406L18.5219 13.0531C18.5946 12.9806 18.6524 12.8943 18.6917 12.7994C18.7311 12.7045 18.7514 12.6028 18.7514 12.5C18.7514 12.3972 18.7311 12.2955 18.6917 12.2006C18.6524 12.1057 18.5946 12.0194 18.5219 11.9469L13.8344 7.25937C13.7617 7.18674 13.6755 7.12912 13.5806 7.08981C13.4857 7.0505 13.384 7.03026 13.2812 7.03026C13.1785 7.03026 13.0768 7.0505 12.9819 7.08981C12.887 7.12912 12.8008 7.18674 12.7281 7.25937C12.6555 7.33201 12.5979 7.41825 12.5586 7.51315C12.5192 7.60806 12.499 7.70977 12.499 7.8125C12.499 7.91523 12.5192 8.01694 12.5586 8.11185C12.5979 8.20675 12.6555 8.29299 12.7281 8.36563L16.0828 11.7188H7.03125Z" fill="#FFC500"/>
</svg>
