<svg width="100" height="100" viewBox="0 0 100 100" fill="none" xmlns="http://www.w3.org/2000/svg">
<path fill-rule="evenodd" clip-rule="evenodd" d="M67.8375 32.1625C68.1286 32.4528 68.3595 32.7976 68.517 33.1773C68.6745 33.5569 68.7556 33.9639 68.7556 34.375C68.7556 34.786 68.6745 35.193 68.517 35.5727C68.3595 35.9523 68.1286 36.2972 67.8375 36.5875L49.0875 55.3375C48.7973 55.6285 48.4524 55.8594 48.0728 56.0169C47.6931 56.1745 47.2861 56.2556 46.875 56.2556C46.464 56.2556 46.057 56.1745 45.6773 56.0169C45.2977 55.8594 44.9528 55.6285 44.6625 55.3375L35.2875 45.9625C34.997 45.6719 34.7665 45.327 34.6093 44.9474C34.452 44.5677 34.3711 44.1609 34.3711 43.75C34.3711 43.3391 34.452 42.9322 34.6093 42.5526C34.7665 42.173 34.997 41.828 35.2875 41.5375C35.5781 41.2469 35.923 41.0164 36.3026 40.8592C36.6823 40.702 37.0891 40.621 37.5 40.621C37.9109 40.621 38.3178 40.702 38.6974 40.8592C39.0771 41.0164 39.422 41.2469 39.7125 41.5375L46.875 48.7062L63.4125 32.1625C63.7028 31.8714 64.0477 31.6406 64.4273 31.483C64.807 31.3255 65.214 31.2444 65.625 31.2444C66.0361 31.2444 66.4431 31.3255 66.8228 31.483C67.2024 31.6406 67.5473 31.8714 67.8375 32.1625Z" fill="#39A2DB"/>
<path d="M12.5 12.5C12.5 9.18479 13.817 6.00537 16.1612 3.66117C18.5054 1.31696 21.6848 0 25 0L75 0C78.3152 0 81.4946 1.31696 83.8388 3.66117C86.183 6.00537 87.5 9.18479 87.5 12.5V96.875C87.4997 97.4403 87.3461 97.9949 87.0555 98.4797C86.765 98.9646 86.3483 99.3616 85.85 99.6284C85.3517 99.8952 84.7903 100.022 84.2257 99.9948C83.6611 99.9678 83.1143 99.7882 82.6437 99.475L50 81.8812L17.3562 99.475C16.8857 99.7882 16.3389 99.9678 15.7743 99.9948C15.2097 100.022 14.6483 99.8952 14.15 99.6284C13.6517 99.3616 13.235 98.9646 12.9445 98.4797C12.6539 97.9949 12.5003 97.4403 12.5 96.875V12.5ZM25 6.25C23.3424 6.25 21.7527 6.90848 20.5806 8.08058C19.4085 9.25268 18.75 10.8424 18.75 12.5V91.0375L48.2687 75.525C48.7816 75.1837 49.3839 75.0016 50 75.0016C50.6161 75.0016 51.2184 75.1837 51.7313 75.525L81.25 91.0375V12.5C81.25 10.8424 80.5915 9.25268 79.4194 8.08058C78.2473 6.90848 76.6576 6.25 75 6.25H25Z" fill="#39A2DB"/>
</svg>
