<svg width="100" height="100" viewBox="0 0 100 100" fill="none" xmlns="http://www.w3.org/2000/svg">
<path d="M87.5 6.25C89.1576 6.25 90.7473 6.90848 91.9194 8.08058C93.0915 9.25268 93.75 10.8424 93.75 12.5V62.5C93.75 64.1576 93.0915 65.7473 91.9194 66.9194C90.7473 68.0915 89.1576 68.75 87.5 68.75H27.5875C24.2726 68.7507 21.0937 70.0681 18.75 72.4125L6.25 84.9125V12.5C6.25 10.8424 6.90848 9.25268 8.08058 8.08058C9.25268 6.90848 10.8424 6.25 12.5 6.25H87.5ZM12.5 0C9.18479 0 6.00537 1.31696 3.66117 3.66117C1.31696 6.00537 0 9.18479 0 12.5L0 92.4563C0.000131343 93.0746 0.183704 93.679 0.527483 94.193C0.871262 94.7069 1.35979 95.1074 1.93125 95.3436C2.5027 95.5798 3.13138 95.6412 3.73773 95.5199C4.34407 95.3987 4.90082 95.1003 5.3375 94.6625L23.1688 76.8313C24.3406 75.6591 25.93 75.0004 27.5875 75H87.5C90.8152 75 93.9946 73.683 96.3388 71.3388C98.683 68.9946 100 65.8152 100 62.5V12.5C100 9.18479 98.683 6.00537 96.3388 3.66117C93.9946 1.31696 90.8152 0 87.5 0L12.5 0Z" fill="#39A2DB"/>
<path d="M18.75 21.875C18.75 21.0462 19.0792 20.2513 19.6653 19.6653C20.2513 19.0792 21.0462 18.75 21.875 18.75H78.125C78.9538 18.75 79.7487 19.0792 80.3347 19.6653C80.9208 20.2513 81.25 21.0462 81.25 21.875C81.25 22.7038 80.9208 23.4987 80.3347 24.0847C79.7487 24.6708 78.9538 25 78.125 25H21.875C21.0462 25 20.2513 24.6708 19.6653 24.0847C19.0792 23.4987 18.75 22.7038 18.75 21.875ZM18.75 37.5C18.75 36.6712 19.0792 35.8763 19.6653 35.2903C20.2513 34.7042 21.0462 34.375 21.875 34.375H78.125C78.9538 34.375 79.7487 34.7042 80.3347 35.2903C80.9208 35.8763 81.25 36.6712 81.25 37.5C81.25 38.3288 80.9208 39.1237 80.3347 39.7097C79.7487 40.2958 78.9538 40.625 78.125 40.625H21.875C21.0462 40.625 20.2513 40.2958 19.6653 39.7097C19.0792 39.1237 18.75 38.3288 18.75 37.5ZM18.75 53.125C18.75 52.2962 19.0792 51.5013 19.6653 50.9153C20.2513 50.3292 21.0462 50 21.875 50H53.125C53.9538 50 54.7487 50.3292 55.3347 50.9153C55.9208 51.5013 56.25 52.2962 56.25 53.125C56.25 53.9538 55.9208 54.7487 55.3347 55.3347C54.7487 55.9208 53.9538 56.25 53.125 56.25H21.875C21.0462 56.25 20.2513 55.9208 19.6653 55.3347C19.0792 54.7487 18.75 53.9538 18.75 53.125Z" fill="#39A2DB"/>
</svg>
