<svg width="100" height="100" viewBox="0 0 100 100" fill="none" xmlns="http://www.w3.org/2000/svg">
<g clip-path="url(#clip0_43_56)">
<path d="M0 50C0 36.7392 5.26784 24.0215 14.6447 14.6447C24.0215 5.26784 36.7392 0 50 0C63.2608 0 75.9785 5.26784 85.3553 14.6447C94.7322 24.0215 100 36.7392 100 50C100 63.2608 94.7322 75.9785 85.3553 85.3553C75.9785 94.7322 63.2608 100 50 100C36.7392 100 24.0215 94.7322 14.6447 85.3553C5.26784 75.9785 0 63.2608 0 50ZM46.875 6.73125C42.6875 8.00625 38.5312 11.8562 35.0812 18.325C33.9452 20.4759 32.9676 22.7068 32.1562 25H46.875V6.73125ZM25.5625 25C26.6053 21.6805 27.944 18.4613 29.5625 15.3812C30.6503 13.342 31.8979 11.3921 33.2938 9.55C25.5509 12.7629 18.8888 18.1238 14.0938 25H25.5625ZM21.925 46.875C22.1125 41.3937 22.7875 36.1375 23.875 31.25H10.4625C8.1378 36.1587 6.74744 41.4573 6.3625 46.875H21.925ZM30.2938 31.25C29.0645 36.3738 28.3567 41.6088 28.1812 46.875H46.875V31.25H30.2938ZM53.125 31.25V46.875H71.8125C71.6391 41.609 70.9334 36.374 69.7063 31.25H53.125ZM28.1875 53.125C28.3609 58.391 29.0666 63.626 30.2938 68.75H46.875V53.125H28.1875ZM53.125 53.125V68.75H69.7063C70.875 63.9688 71.6188 58.7 71.8187 53.125H53.125ZM32.1562 75C33.0229 77.4167 33.9979 79.6417 35.0812 81.675C38.5312 88.1437 42.6937 91.9875 46.875 93.2688V75H32.1562ZM33.2938 90.45C31.8979 88.6079 30.6503 86.658 29.5625 84.6187C27.944 81.5387 26.6053 78.3195 25.5625 75H14.0938C18.8811 81.8834 25.5455 87.2462 33.2938 90.45ZM23.875 68.75C22.7465 63.6126 22.0937 58.3822 21.925 53.125H6.3625C6.75 58.6875 8.18125 63.9562 10.4625 68.75H23.875ZM66.7063 90.45C74.4545 87.2462 81.1189 81.8834 85.9062 75H74.4375C73.3947 78.3195 72.056 81.5387 70.4375 84.6187C69.3497 86.658 68.1021 88.6079 66.7063 90.45ZM53.125 75V93.2688C57.3125 91.9938 61.4688 88.1437 64.9187 81.675C66.0021 79.6458 66.9771 77.4208 67.8438 75H53.125ZM76.125 68.75H89.5375C91.8187 63.9562 93.25 58.6875 93.6375 53.125H78.075C77.9063 58.3822 77.2535 63.6126 76.125 68.75ZM93.6375 46.875C93.2526 41.4573 91.8622 36.1587 89.5375 31.25H76.125C77.2125 36.1375 77.8875 41.3937 78.075 46.875H93.6375ZM70.4375 15.3812C71.9813 18.2812 73.325 21.5063 74.4375 25H85.9062C81.1189 18.1166 74.4545 12.7538 66.7063 9.55C68.0687 11.325 69.3188 13.2875 70.4375 15.3812ZM67.8438 25C67.0324 22.7068 66.0548 20.4759 64.9187 18.325C61.4688 11.8562 57.3125 8.0125 53.125 6.73125V25H67.8438Z" fill="#39A2DB"/>
</g>
<defs>
<clipPath id="clip0_43_56">
<rect width="100" height="100" fill="white"/>
</clipPath>
</defs>
</svg>
