<svg width="40" height="40" viewBox="0 0 40 40" fill="none" xmlns="http://www.w3.org/2000/svg">
<g filter="url(#filter0_d_89_2)">
<path fill-rule="evenodd" clip-rule="evenodd" d="M5 18C5 14.0218 6.58035 10.2064 9.3934 7.3934C12.2064 4.58035 16.0218 3 20 3C23.9782 3 27.7936 4.58035 30.6066 7.3934C33.4196 10.2064 35 14.0218 35 18C35 21.9782 33.4196 25.7936 30.6066 28.6066C27.7936 31.4196 23.9782 33 20 33C16.0218 33 12.2064 31.4196 9.3934 28.6066C6.58035 25.7936 5 21.9782 5 18ZM20 4.875C17.5283 4.87513 15.1069 5.57318 13.0145 6.8888C10.9221 8.20442 9.24366 10.0841 8.17243 12.3116C7.10121 14.5391 6.68072 17.0238 6.95937 19.4797C7.23802 21.9356 8.20447 24.2629 9.7475 26.1938C11.0788 24.0487 14.0094 21.75 20 21.75C25.9906 21.75 28.9194 24.0469 30.2525 26.1938C31.7955 24.2629 32.762 21.9356 33.0406 19.4797C33.3193 17.0238 32.8988 14.5391 31.8276 12.3116C30.7563 10.0841 29.0779 8.20442 26.9855 6.8888C24.8931 5.57318 22.4717 4.87513 20 4.875Z" fill="#39A2DB"/>
</g>
<path d="M25.25 12.625C25.25 14.1168 24.6574 15.5476 23.6025 16.6025C22.5476 17.6574 21.1168 18.25 19.625 18.25C18.1332 18.25 16.7024 17.6574 15.6475 16.6025C14.5926 15.5476 14 14.1168 14 12.625C14 11.1332 14.5926 9.70242 15.6475 8.64752C16.7024 7.59263 18.1332 7 19.625 7C21.1168 7 22.5476 7.59263 23.6025 8.64752C24.6574 9.70242 25.25 11.1332 25.25 12.625Z" fill="#39A2DB"/>
<defs>
<filter id="filter0_d_89_2" x="0" y="0" width="40" height="40" filterUnits="userSpaceOnUse" color-interpolation-filters="sRGB">
<feFlood flood-opacity="0" result="BackgroundImageFix"/>
<feColorMatrix in="SourceAlpha" type="matrix" values="0 0 0 0 0 0 0 0 0 0 0 0 0 0 0 0 0 0 127 0" result="hardAlpha"/>
<feOffset dy="2"/>
<feGaussianBlur stdDeviation="2.5"/>
<feComposite in2="hardAlpha" operator="out"/>
<feColorMatrix type="matrix" values="0 0 0 0 0.145098 0 0 0 0 0.145098 0 0 0 0 0.145098 0 0 0 0.25 0"/>
<feBlend mode="normal" in2="BackgroundImageFix" result="effect1_dropShadow_89_2"/>
<feBlend mode="normal" in="SourceGraphic" in2="effect1_dropShadow_89_2" result="shape"/>
</filter>
</defs>
</svg>
