<svg width="100" height="100" viewBox="0 0 100 100" fill="none" xmlns="http://www.w3.org/2000/svg">
<path d="M50 6.25C53.3152 6.25 56.4946 7.56696 58.8388 9.91117C61.183 12.2554 62.5 15.4348 62.5 18.75V43.75H37.5V18.75C37.5 15.4348 38.817 12.2554 41.1612 9.91117C43.5054 7.56696 46.6848 6.25 50 6.25ZM68.75 43.75V18.75C68.75 13.7772 66.7746 9.00805 63.2583 5.49175C59.7419 1.97544 54.9728 0 50 0C45.0272 0 40.2581 1.97544 36.7417 5.49175C33.2254 9.00805 31.25 13.7772 31.25 18.75V43.75C27.9348 43.75 24.7554 45.067 22.4112 47.4112C20.067 49.7554 18.75 52.9348 18.75 56.25V87.5C18.75 90.8152 20.067 93.9946 22.4112 96.3388C24.7554 98.683 27.9348 100 31.25 100H68.75C72.0652 100 75.2446 98.683 77.5888 96.3388C79.933 93.9946 81.25 90.8152 81.25 87.5V56.25C81.25 52.9348 79.933 49.7554 77.5888 47.4112C75.2446 45.067 72.0652 43.75 68.75 43.75ZM31.25 50H68.75C70.4076 50 71.9973 50.6585 73.1694 51.8306C74.3415 53.0027 75 54.5924 75 56.25V87.5C75 89.1576 74.3415 90.7473 73.1694 91.9194C71.9973 93.0915 70.4076 93.75 68.75 93.75H31.25C29.5924 93.75 28.0027 93.0915 26.8306 91.9194C25.6585 90.7473 25 89.1576 25 87.5V56.25C25 54.5924 25.6585 53.0027 26.8306 51.8306C28.0027 50.6585 29.5924 50 31.25 50Z" fill="#39A2DB"/>
</svg>
