<svg width="100" height="100" viewBox="0 0 100 100" fill="none" xmlns="http://www.w3.org/2000/svg">
<path d="M78.125 100C83.9266 100 89.4906 97.6953 93.593 93.593C97.6953 89.4906 100 83.9266 100 78.125C100 72.3234 97.6953 66.7594 93.593 62.657C89.4906 58.5547 83.9266 56.25 78.125 56.25C72.3234 56.25 66.7594 58.5547 62.657 62.657C58.5547 66.7594 56.25 72.3234 56.25 78.125C56.25 83.9266 58.5547 89.4906 62.657 93.593C66.7594 97.6953 72.3234 100 78.125 100ZM88.6187 71.9188L80.275 85.8312C79.9083 86.4425 79.4071 86.962 78.8095 87.3504C78.2118 87.7388 77.5334 87.9858 76.826 88.0725C76.1185 88.1593 75.4006 88.0836 74.7268 87.8512C74.0529 87.6188 73.441 87.2357 72.9375 86.7312L68.1 81.9C67.5132 81.3132 67.1836 80.5173 67.1836 79.6875C67.1836 78.8577 67.5132 78.0618 68.1 77.475C68.6868 76.8882 69.4827 76.5586 70.3125 76.5586C71.1423 76.5586 71.9382 76.8882 72.525 77.475L75.9437 80.9L83.2563 68.7062C83.4672 68.3541 83.7454 68.047 84.075 67.8024C84.4047 67.5579 84.7792 67.3806 85.1774 67.2808C85.5755 67.181 85.9894 67.1605 86.3954 67.2207C86.8014 67.2808 87.1916 67.4203 87.5438 67.6313C87.8959 67.8422 88.203 68.1204 88.4476 68.45C88.6921 68.7797 88.8694 69.1542 88.9692 69.5524C89.069 69.9505 89.0895 70.3644 89.0293 70.7704C88.9692 71.1764 88.8297 71.5666 88.6187 71.9188ZM68.75 31.25C68.75 36.2228 66.7746 40.9919 63.2583 44.5083C59.7419 48.0246 54.9728 50 50 50C45.0272 50 40.2581 48.0246 36.7417 44.5083C33.2254 40.9919 31.25 36.2228 31.25 31.25C31.25 26.2772 33.2254 21.5081 36.7417 17.9917C40.2581 14.4754 45.0272 12.5 50 12.5C54.9728 12.5 59.7419 14.4754 63.2583 17.9917C66.7746 21.5081 68.75 26.2772 68.75 31.25ZM50 43.75C53.3152 43.75 56.4946 42.433 58.8388 40.0888C61.183 37.7446 62.5 34.5652 62.5 31.25C62.5 27.9348 61.183 24.7554 58.8388 22.4112C56.4946 20.067 53.3152 18.75 50 18.75C46.6848 18.75 43.5054 20.067 41.1612 22.4112C38.817 24.7554 37.5 27.9348 37.5 31.25C37.5 34.5652 38.817 37.7446 41.1612 40.0888C43.5054 42.433 46.6848 43.75 50 43.75Z" fill="#39A2DB"/>
<path d="M51.6 87.5C50.8844 85.47 50.4041 83.3645 50.1688 81.225H18.75C18.7562 79.6875 19.7125 75.0625 23.95 70.825C28.025 66.75 35.6938 62.5 50 62.5C51.625 62.5 53.1667 62.5521 54.625 62.6562C56.0375 60.525 57.725 58.5938 59.65 56.9188C56.7333 56.4813 53.5167 56.2583 50 56.25C18.75 56.25 12.5 75 12.5 81.25C12.5 87.5 18.75 87.5 18.75 87.5H51.6Z" fill="#39A2DB"/>
</svg>
