<svg width="20" height="20" viewBox="0 0 20 20" fill="none" xmlns="http://www.w3.org/2000/svg">
<g clip-path="url(#clip0_71_114)">
<path d="M4.56723 1.65982C4.49344 1.5649 4.4003 1.48676 4.29399 1.4306C4.18768 1.37444 4.07063 1.34155 3.95063 1.3341C3.83063 1.32665 3.71042 1.34482 3.59798 1.3874C3.48554 1.42998 3.38345 1.496 3.29848 1.58107L2.00598 2.87482C1.40223 3.47982 1.17973 4.33607 1.44348 5.08732C2.5394 8.19621 4.31993 11.0191 6.65348 13.3473C8.98172 15.6809 11.8046 17.4614 14.9135 18.5573C15.6647 18.8211 16.521 18.5986 17.126 17.9948L18.4185 16.7023C18.5036 16.6174 18.5696 16.5153 18.6122 16.4028C18.6547 16.2904 18.6729 16.1702 18.6655 16.0502C18.658 15.9302 18.6251 15.8131 18.569 15.7068C18.5128 15.6005 18.4347 15.5074 18.3397 15.4336L15.456 13.1911C15.3545 13.1126 15.2365 13.0581 15.111 13.0317C14.9854 13.0053 14.8555 13.0076 14.731 13.0386L11.9935 13.7223C11.6281 13.813 11.2454 13.8079 10.8825 13.7074C10.5197 13.6068 10.1889 13.4144 9.92223 13.1486L6.85223 10.0773C6.58621 9.81077 6.39351 9.48006 6.29277 9.1172C6.19204 8.75433 6.18668 8.37161 6.27723 8.00607L6.96223 5.26857C6.99318 5.14405 6.99554 5.01414 6.96913 4.88858C6.94272 4.76302 6.88822 4.64507 6.80973 4.54357L4.56723 1.65982ZM2.35473 0.638569C2.57348 0.419756 2.83627 0.249982 3.12566 0.140521C3.41505 0.0310595 3.72441 -0.0155846 4.03321 0.00368573C4.34201 0.0229561 4.64318 0.1077 4.91671 0.25229C5.19025 0.396881 5.42989 0.598009 5.61973 0.842319L7.86223 3.72482C8.27348 4.25357 8.41848 4.94232 8.25598 5.59232L7.57223 8.32982C7.53713 8.47162 7.53916 8.62007 7.57814 8.76086C7.61711 8.90164 7.69171 9.03001 7.79473 9.13357L10.866 12.2048C10.9697 12.3081 11.0982 12.3828 11.2393 12.4218C11.3803 12.4607 11.529 12.4627 11.671 12.4273L14.4072 11.7436C14.728 11.6638 15.0627 11.6578 15.3862 11.726C15.7096 11.7942 16.0134 11.9348 16.2747 12.1373L19.1572 14.3798C20.1935 15.1861 20.2885 16.7173 19.361 17.6436L18.0685 18.9361C17.1435 19.8611 15.761 20.2673 14.4722 19.8136C11.1731 18.6543 8.17791 16.7658 5.70973 14.2886C3.2327 11.8208 1.34417 8.82603 0.184734 5.52732C-0.267766 4.23982 0.138484 2.85607 1.06348 1.93107L2.35473 0.638569Z" fill="#FAFBFF"/>
</g>
<defs>
<clipPath id="clip0_71_114">
<rect width="20" height="20" fill="white"/>
</clipPath>
</defs>
</svg>
