<svg width="20" height="5" viewBox="0 0 20 5" fill="none" xmlns="http://www.w3.org/2000/svg">
<path d="M2.30769 5C1.69565 5 1.10868 4.73661 0.675907 4.26777C0.243131 3.79893 0 3.16304 0 2.5C0 1.83696 0.243131 1.20107 0.675907 0.732233C1.10868 0.263392 1.69565 0 2.30769 0C2.91973 0 3.5067 0.263392 3.93948 0.732233C4.37225 1.20107 4.61538 1.83696 4.61538 2.5C4.61538 3.16304 4.37225 3.79893 3.93948 4.26777C3.5067 4.73661 2.91973 5 2.30769 5ZM10 5C9.38796 5 8.80099 4.73661 8.36821 4.26777C7.93544 3.79893 7.69231 3.16304 7.69231 2.5C7.69231 1.83696 7.93544 1.20107 8.36821 0.732233C8.80099 0.263392 9.38796 0 10 0C10.612 0 11.199 0.263392 11.6318 0.732233C12.0646 1.20107 12.3077 1.83696 12.3077 2.5C12.3077 3.16304 12.0646 3.79893 11.6318 4.26777C11.199 4.73661 10.612 5 10 5ZM17.6923 5C17.0803 5 16.4933 4.73661 16.0605 4.26777C15.6277 3.79893 15.3846 3.16304 15.3846 2.5C15.3846 1.83696 15.6277 1.20107 16.0605 0.732233C16.4933 0.263392 17.0803 0 17.6923 0C18.3043 0 18.8913 0.263392 19.3241 0.732233C19.7569 1.20107 20 1.83696 20 2.5C20 3.16304 19.7569 3.79893 19.3241 4.26777C18.8913 4.73661 18.3043 5 17.6923 5Z" fill="#FFC500"/>
</svg>
