<svg width="38" height="38" viewBox="0 0 38 38" fill="none" xmlns="http://www.w3.org/2000/svg">
<g filter="url(#filter0_d_51_28)">
<path d="M19 11.4573L17.3237 7.54262C16.9075 6.57326 16.1856 5.1794 15.1637 4.05249C14.1587 2.94309 12.955 2.18817 11.5 2.18817C8.3575 2.18817 5.875 5.08968 5.875 8.57763C5.875 11.2275 6.91375 13.0984 9.3775 15.9518C10.0094 16.6826 10.7294 17.4725 11.5262 18.3434C13.6038 20.6191 16.1875 23.4506 19 27.2362C21.8125 23.4506 24.3962 20.6191 26.4738 18.3434C27.2706 17.4725 27.9925 16.6804 28.6225 15.9518C31.0863 13.0984 32.125 11.2275 32.125 8.57763C32.125 5.08968 29.6425 2.18817 26.5 2.18817C25.0431 2.18817 23.8412 2.94309 22.8362 4.05249C21.8144 5.1794 21.0925 6.57326 20.6763 7.54262L19 11.4573ZM19.735 29.6016C19.6447 29.7264 19.5322 29.8267 19.4052 29.8955C19.2783 29.9643 19.14 30 19 30C18.86 30 18.7217 29.9643 18.5948 29.8955C18.4678 29.8267 18.3553 29.7264 18.265 29.6016C15.2631 25.4397 12.5463 22.4638 10.3094 20.0152C6.4375 15.7723 4 13.105 4 8.57763C4 3.84024 7.35625 0 11.5 0C14.5 0 16.5981 2.29758 17.8825 4.39385C18.37 5.19253 18.7413 5.96058 19 6.56451C19.3247 5.80886 19.6983 5.0832 20.1175 4.39385C21.4019 2.29539 23.5 0 26.5 0C30.6437 0 34 3.84024 34 8.57763C34 13.105 31.5625 15.7723 27.6906 20.0152C25.4538 22.4659 22.7369 25.444 19.735 29.6016Z" fill="#39A2DB"/>
</g>
<defs>
<filter id="filter0_d_51_28" x="0" y="0" width="38" height="38" filterUnits="userSpaceOnUse" color-interpolation-filters="sRGB">
<feFlood flood-opacity="0" result="BackgroundImageFix"/>
<feColorMatrix in="SourceAlpha" type="matrix" values="0 0 0 0 0 0 0 0 0 0 0 0 0 0 0 0 0 0 127 0" result="hardAlpha"/>
<feOffset dy="4"/>
<feGaussianBlur stdDeviation="2"/>
<feComposite in2="hardAlpha" operator="out"/>
<feColorMatrix type="matrix" values="0 0 0 0 0 0 0 0 0 0 0 0 0 0 0 0 0 0 0.25 0"/>
<feBlend mode="normal" in2="BackgroundImageFix" result="effect1_dropShadow_51_28"/>
<feBlend mode="normal" in="SourceGraphic" in2="effect1_dropShadow_51_28" result="shape"/>
</filter>
</defs>
</svg>
