<svg width="100" height="100" viewBox="0 0 100 100" fill="none" xmlns="http://www.w3.org/2000/svg">
<path d="M50.3187 12.4937H50.875C56.0125 12.5124 82.0437 12.6999 89.0625 14.5874C91.1843 15.1635 93.1178 16.2863 94.6697 17.8437C96.2217 19.4011 97.3377 21.3386 97.9062 23.4624C98.5375 25.8374 98.9813 28.9812 99.2812 32.2249L99.3438 32.8749L99.4812 34.4999L99.5312 35.1499C99.9375 40.8624 99.9875 46.2124 99.9937 47.3811V47.8499C99.9875 49.0624 99.9313 54.7749 99.4812 60.7249L99.4313 61.3812L99.375 62.0312C99.0625 65.6062 98.6 69.1562 97.9062 71.7687C97.3377 73.8925 96.2217 75.8299 94.6697 77.3874C93.1178 78.9448 91.1843 80.0676 89.0625 80.6437C81.8125 82.5937 54.2562 82.7312 50.4375 82.7374H49.55C47.6188 82.7374 39.6312 82.6999 31.2563 82.4124L30.1937 82.3749L29.65 82.3499L28.5812 82.3062L27.5125 82.2624C20.575 81.9562 13.9688 81.4624 10.925 80.6374C8.80392 80.0619 6.87093 78.94 5.31907 77.3837C3.76721 75.8275 2.65077 73.8913 2.08125 71.7687C1.3875 69.1624 0.925 65.6062 0.6125 62.0312L0.5625 61.3749L0.5125 60.7249C0.202271 56.49 0.0313457 52.246 0 47.9999L0 47.2312C0.0125 45.8874 0.0625 41.2437 0.4 36.1187L0.44375 35.4749L0.4625 35.1499L0.5125 34.4999L0.65 32.8749L0.7125 32.2249C1.0125 28.9812 1.45625 25.8312 2.0875 23.4624C2.65607 21.3386 3.77208 19.4011 5.324 17.8437C6.87593 16.2863 8.80942 15.1635 10.9312 14.5874C13.975 13.7749 20.5812 13.2749 27.5187 12.9624L28.5812 12.9187L29.6562 12.8812L30.1937 12.8624L31.2625 12.8187C37.2107 12.6274 43.1613 12.5212 49.1125 12.4999L50.3187 12.4937ZM40 32.5562V62.6687L65.9813 47.6187L40 32.5562Z" fill="#39A2DB"/>
</svg>
